<mxfile host="app.diagrams.net" modified="2021-12-13T09:02:15.557Z" agent="5.0 (Macintosh; Intel Mac OS X 10_15_7) AppleWebKit/537.36 (KHTML, like Gecko) Chrome/96.0.4664.93 Safari/537.36" etag="NW_SPdU0ta4hoFDIlM9i" version="15.8.3" type="github">
  <diagram id="-SqjcktecUztdG28ogHb" name="Page-1">
    <mxGraphModel dx="1796" dy="540" grid="0" gridSize="10" guides="1" tooltips="1" connect="1" arrows="1" fold="1" page="1" pageScale="1" pageWidth="850" pageHeight="1100" math="0" shadow="0">
      <root>
        <mxCell id="0" />
        <mxCell id="1" parent="0" />
        <mxCell id="NrrgTj4qj1DMs7ZlNqy9-1" value="Organization" style="fillColor=#EFF0F3;strokeColor=none;dashed=0;verticalAlign=top;fontStyle=0;fontColor=#232F3D;" parent="1" vertex="1">
          <mxGeometry x="-170" y="155" width="960" height="825" as="geometry" />
        </mxCell>
        <mxCell id="NrrgTj4qj1DMs7ZlNqy9-2" value="&lt;br&gt;&lt;br&gt;" style="points=[[0,0],[0.25,0],[0.5,0],[0.75,0],[1,0],[1,0.25],[1,0.5],[1,0.75],[1,1],[0.75,1],[0.5,1],[0.25,1],[0,1],[0,0.75],[0,0.5],[0,0.25]];outlineConnect=0;gradientColor=none;html=1;whiteSpace=wrap;fontSize=12;fontStyle=0;shape=mxgraph.aws4.group;grIcon=mxgraph.aws4.group_aws_cloud_alt;strokeColor=#232F3E;fillColor=none;verticalAlign=top;align=left;spacingLeft=30;fontColor=#232F3E;dashed=0;" parent="1" vertex="1">
          <mxGeometry x="-130" y="190" width="860" height="750" as="geometry" />
        </mxCell>
        <mxCell id="NrrgTj4qj1DMs7ZlNqy9-3" value="VPC - Public VPC&amp;nbsp;" style="points=[[0,0],[0.25,0],[0.5,0],[0.75,0],[1,0],[1,0.25],[1,0.5],[1,0.75],[1,1],[0.75,1],[0.5,1],[0.25,1],[0,1],[0,0.75],[0,0.5],[0,0.25]];outlineConnect=0;gradientColor=none;html=1;whiteSpace=wrap;fontSize=12;fontStyle=0;shape=mxgraph.aws4.group;grIcon=mxgraph.aws4.group_vpc;strokeColor=#248814;fillColor=none;verticalAlign=top;align=left;spacingLeft=30;fontColor=#AAB7B8;dashed=0;" parent="1" vertex="1">
          <mxGeometry x="140" y="200" width="500" height="560" as="geometry" />
        </mxCell>
        <mxCell id="NrrgTj4qj1DMs7ZlNqy9-4" value="Public subnet" style="points=[[0,0],[0.25,0],[0.5,0],[0.75,0],[1,0],[1,0.25],[1,0.5],[1,0.75],[1,1],[0.75,1],[0.5,1],[0.25,1],[0,1],[0,0.75],[0,0.5],[0,0.25]];outlineConnect=0;gradientColor=none;html=1;whiteSpace=wrap;fontSize=12;fontStyle=0;shape=mxgraph.aws4.group;grIcon=mxgraph.aws4.group_security_group;grStroke=0;strokeColor=#248814;fillColor=#E9F3E6;verticalAlign=top;align=left;spacingLeft=30;fontColor=#248814;dashed=0;" parent="1" vertex="1">
          <mxGeometry x="150" y="230" width="480" height="510" as="geometry" />
        </mxCell>
        <mxCell id="NrrgTj4qj1DMs7ZlNqy9-5" value="Security group 2 (Redirect_SG)&#xa;&#xa;&#xa;&#xa;&#xa;&#xa;&#xa;&#xa;&#xa;&#xa;" style="fillColor=none;strokeColor=#DD3522;verticalAlign=top;fontStyle=0;fontColor=#DD3522;" parent="1" vertex="1">
          <mxGeometry x="266.75" y="240" width="193.25" height="180" as="geometry" />
        </mxCell>
        <mxCell id="NrrgTj4qj1DMs7ZlNqy9-6" value="Security Group 1 (GoPhish_SG)&#xa;&#xa;&#xa;&#xa;&#xa;&#xa;&#xa;&#xa;&#xa;&#xa;&#xa;Admin only from Ocean&#xa;HTTPS Open to world&#xa;" style="fillColor=none;strokeColor=#DD3522;verticalAlign=top;fontStyle=0;fontColor=#DD3522;" parent="1" vertex="1">
          <mxGeometry x="258.37" y="520" width="210.63" height="210" as="geometry" />
        </mxCell>
        <mxCell id="NrrgTj4qj1DMs7ZlNqy9-7" value="" style="whiteSpace=wrap;html=1;aspect=fixed;" parent="1" vertex="1">
          <mxGeometry x="1000" y="230" width="310" height="310" as="geometry" />
        </mxCell>
        <mxCell id="NrrgTj4qj1DMs7ZlNqy9-10" value="10.0.8.102&lt;br&gt;&lt;br&gt;SoCat Redir" style="outlineConnect=0;fontColor=#232F3E;gradientColor=none;strokeColor=#ffffff;fillColor=#232F3E;dashed=0;verticalLabelPosition=middle;verticalAlign=bottom;align=center;html=1;whiteSpace=wrap;fontSize=10;fontStyle=1;spacing=3;shape=mxgraph.aws4.productIcon;prIcon=mxgraph.aws4.ec2;" parent="1" vertex="1">
          <mxGeometry x="323.38" y="269" width="80" height="121" as="geometry" />
        </mxCell>
        <mxCell id="NrrgTj4qj1DMs7ZlNqy9-11" style="edgeStyle=orthogonalEdgeStyle;rounded=0;orthogonalLoop=1;jettySize=auto;html=1;" parent="1" source="NrrgTj4qj1DMs7ZlNqy9-12" target="NrrgTj4qj1DMs7ZlNqy9-34" edge="1">
          <mxGeometry relative="1" as="geometry" />
        </mxCell>
        <mxCell id="Ij9Xw9QdPiE9dVmvjiWs-19" style="edgeStyle=orthogonalEdgeStyle;rounded=0;orthogonalLoop=1;jettySize=auto;html=1;" parent="1" source="NrrgTj4qj1DMs7ZlNqy9-12" target="Ij9Xw9QdPiE9dVmvjiWs-18" edge="1">
          <mxGeometry relative="1" as="geometry" />
        </mxCell>
        <mxCell id="NrrgTj4qj1DMs7ZlNqy9-12" value="" style="html=1;strokeWidth=1;shadow=0;dashed=0;shape=mxgraph.ios7.misc.vpn;fillColor=#007AFF;strokeColor=none;buttonText=;strokeColor2=#222222;fontColor=#222222;fontSize=8;verticalLabelPosition=bottom;verticalAlign=top;align=center;" parent="1" vertex="1">
          <mxGeometry x="950" y="290" width="70" height="69" as="geometry" />
        </mxCell>
        <mxCell id="NrrgTj4qj1DMs7ZlNqy9-15" value="" style="edgeStyle=orthogonalEdgeStyle;rounded=0;orthogonalLoop=1;jettySize=auto;html=1;" parent="1" source="NrrgTj4qj1DMs7ZlNqy9-16" target="NrrgTj4qj1DMs7ZlNqy9-10" edge="1">
          <mxGeometry relative="1" as="geometry">
            <mxPoint x="271" y="309" as="targetPoint" />
            <Array as="points">
              <mxPoint x="270" y="309" />
              <mxPoint x="270" y="309" />
            </Array>
          </mxGeometry>
        </mxCell>
        <mxCell id="NrrgTj4qj1DMs7ZlNqy9-16" value="domain2.whatever.com A record&lt;br&gt;2.3.4.5" style="points=[[0,0,0],[0.25,0,0],[0.5,0,0],[0.75,0,0],[1,0,0],[0,1,0],[0.25,1,0],[0.5,1,0],[0.75,1,0],[1,1,0],[0,0.25,0],[0,0.5,0],[0,0.75,0],[1,0.25,0],[1,0.5,0],[1,0.75,0]];outlineConnect=0;fontColor=#232F3E;gradientColor=#945DF2;gradientDirection=north;fillColor=#5A30B5;strokeColor=#ffffff;dashed=0;verticalLabelPosition=bottom;verticalAlign=top;align=center;html=1;fontSize=12;fontStyle=0;aspect=fixed;shape=mxgraph.aws4.resourceIcon;resIcon=mxgraph.aws4.route_53;" parent="1" vertex="1">
          <mxGeometry x="20" y="270" width="78" height="78" as="geometry" />
        </mxCell>
        <mxCell id="NrrgTj4qj1DMs7ZlNqy9-18" value="&lt;span style=&quot;color: rgb(35 , 47 , 62)&quot;&gt;domain2.whatever.com&lt;/span&gt;" style="outlineConnect=0;dashed=0;verticalLabelPosition=bottom;verticalAlign=top;align=center;html=1;shape=mxgraph.aws3.certificate_manager_2;fillColor=#759C3E;gradientColor=none;" parent="1" vertex="1">
          <mxGeometry x="22.25" y="390" width="73.5" height="63" as="geometry" />
        </mxCell>
        <mxCell id="Ij9Xw9QdPiE9dVmvjiWs-14" style="edgeStyle=orthogonalEdgeStyle;rounded=0;orthogonalLoop=1;jettySize=auto;html=1;" parent="1" source="NrrgTj4qj1DMs7ZlNqy9-20" edge="1">
          <mxGeometry relative="1" as="geometry">
            <mxPoint x="32" y="585" as="targetPoint" />
          </mxGeometry>
        </mxCell>
        <mxCell id="Ij9Xw9QdPiE9dVmvjiWs-15" value="Initial Phishing Click" style="edgeLabel;html=1;align=center;verticalAlign=middle;resizable=0;points=[];" parent="Ij9Xw9QdPiE9dVmvjiWs-14" vertex="1" connectable="0">
          <mxGeometry x="-0.1724" y="-1" relative="1" as="geometry">
            <mxPoint x="-15" y="-1" as="offset" />
          </mxGeometry>
        </mxCell>
        <mxCell id="NrrgTj4qj1DMs7ZlNqy9-20" value="Target Computer" style="points=[];aspect=fixed;html=1;align=center;shadow=0;dashed=0;image;image=img/lib/allied_telesis/computer_and_terminals/Personal_Computer.svg;" parent="1" vertex="1">
          <mxGeometry x="-455" y="540" width="65" height="88.09" as="geometry" />
        </mxCell>
        <mxCell id="NrrgTj4qj1DMs7ZlNqy9-22" value="10.8.101&lt;br&gt;&lt;br&gt;&amp;nbsp;GoPhish&amp;nbsp;" style="outlineConnect=0;fontColor=#232F3E;gradientColor=none;strokeColor=#ffffff;fillColor=#232F3E;dashed=0;verticalLabelPosition=middle;verticalAlign=bottom;align=center;html=1;whiteSpace=wrap;fontSize=10;fontStyle=1;spacing=3;shape=mxgraph.aws4.productIcon;prIcon=mxgraph.aws4.ec2;" parent="1" vertex="1">
          <mxGeometry x="322" y="550" width="80" height="120" as="geometry" />
        </mxCell>
        <mxCell id="NrrgTj4qj1DMs7ZlNqy9-25" style="edgeStyle=orthogonalEdgeStyle;rounded=0;orthogonalLoop=1;jettySize=auto;html=1;entryX=0.05;entryY=0.329;entryDx=0;entryDy=0;entryPerimeter=0;" parent="1" source="NrrgTj4qj1DMs7ZlNqy9-27" target="NrrgTj4qj1DMs7ZlNqy9-6" edge="1">
          <mxGeometry relative="1" as="geometry">
            <mxPoint x="170" y="589" as="targetPoint" />
          </mxGeometry>
        </mxCell>
        <mxCell id="Ij9Xw9QdPiE9dVmvjiWs-16" style="edgeStyle=orthogonalEdgeStyle;rounded=0;orthogonalLoop=1;jettySize=auto;html=1;entryX=0;entryY=0.5;entryDx=0;entryDy=0;entryPerimeter=0;" parent="1" source="NrrgTj4qj1DMs7ZlNqy9-22" target="NrrgTj4qj1DMs7ZlNqy9-16" edge="1">
          <mxGeometry relative="1" as="geometry">
            <Array as="points">
              <mxPoint x="-110" y="570" />
              <mxPoint x="-110" y="309" />
            </Array>
          </mxGeometry>
        </mxCell>
        <mxCell id="Ij9Xw9QdPiE9dVmvjiWs-17" value="If IP = Customer Scope; Then Redirect to Payload site" style="edgeLabel;html=1;align=center;verticalAlign=middle;resizable=0;points=[];" parent="Ij9Xw9QdPiE9dVmvjiWs-16" vertex="1" connectable="0">
          <mxGeometry x="0.0893" y="1" relative="1" as="geometry">
            <mxPoint x="-29" y="-74" as="offset" />
          </mxGeometry>
        </mxCell>
        <mxCell id="NrrgTj4qj1DMs7ZlNqy9-27" value="domain1.whatever.com&lt;br&gt;1.2.3.4" style="points=[[0,0,0],[0.25,0,0],[0.5,0,0],[0.75,0,0],[1,0,0],[0,1,0],[0.25,1,0],[0.5,1,0],[0.75,1,0],[1,1,0],[0,0.25,0],[0,0.5,0],[0,0.75,0],[1,0.25,0],[1,0.5,0],[1,0.75,0]];outlineConnect=0;fontColor=#232F3E;gradientColor=#945DF2;gradientDirection=north;fillColor=#5A30B5;strokeColor=#ffffff;dashed=0;verticalLabelPosition=bottom;verticalAlign=top;align=center;html=1;fontSize=12;fontStyle=0;aspect=fixed;shape=mxgraph.aws4.resourceIcon;resIcon=mxgraph.aws4.route_53;" parent="1" vertex="1">
          <mxGeometry x="20" y="550" width="78" height="78" as="geometry" />
        </mxCell>
        <mxCell id="NrrgTj4qj1DMs7ZlNqy9-29" value="&lt;span style=&quot;color: rgb(35 , 47 , 62)&quot;&gt;domain1.whatever.com&lt;/span&gt;" style="outlineConnect=0;dashed=0;verticalLabelPosition=bottom;verticalAlign=top;align=center;html=1;shape=mxgraph.aws3.certificate_manager_2;fillColor=#759C3E;gradientColor=none;" parent="1" vertex="1">
          <mxGeometry x="22.25" y="670" width="73.5" height="63" as="geometry" />
        </mxCell>
        <mxCell id="NrrgTj4qj1DMs7ZlNqy9-30" style="edgeStyle=orthogonalEdgeStyle;rounded=0;orthogonalLoop=1;jettySize=auto;html=1;entryX=1;entryY=0.5;entryDx=0;entryDy=0;entryPerimeter=0;" parent="1" source="NrrgTj4qj1DMs7ZlNqy9-6" target="NrrgTj4qj1DMs7ZlNqy9-32" edge="1">
          <mxGeometry relative="1" as="geometry">
            <mxPoint x="415" y="850" as="sourcePoint" />
            <mxPoint x="185" y="810" as="targetPoint" />
          </mxGeometry>
        </mxCell>
        <mxCell id="NrrgTj4qj1DMs7ZlNqy9-31" value="SMTP" style="edgeLabel;html=1;align=center;verticalAlign=middle;resizable=0;points=[];" parent="NrrgTj4qj1DMs7ZlNqy9-30" vertex="1" connectable="0">
          <mxGeometry x="-0.2923" relative="1" as="geometry">
            <mxPoint as="offset" />
          </mxGeometry>
        </mxCell>
        <mxCell id="Ij9Xw9QdPiE9dVmvjiWs-12" style="edgeStyle=orthogonalEdgeStyle;rounded=0;orthogonalLoop=1;jettySize=auto;html=1;" parent="1" source="NrrgTj4qj1DMs7ZlNqy9-32" target="NrrgTj4qj1DMs7ZlNqy9-20" edge="1">
          <mxGeometry relative="1" as="geometry" />
        </mxCell>
        <mxCell id="Ij9Xw9QdPiE9dVmvjiWs-13" value="Inbound Email" style="edgeLabel;html=1;align=center;verticalAlign=middle;resizable=0;points=[];" parent="Ij9Xw9QdPiE9dVmvjiWs-12" vertex="1" connectable="0">
          <mxGeometry x="-0.1763" y="-2" relative="1" as="geometry">
            <mxPoint as="offset" />
          </mxGeometry>
        </mxCell>
        <mxCell id="NrrgTj4qj1DMs7ZlNqy9-32" value="WorkMail" style="points=[[0,0,0],[0.25,0,0],[0.5,0,0],[0.75,0,0],[1,0,0],[0,1,0],[0.25,1,0],[0.5,1,0],[0.75,1,0],[1,1,0],[0,0.25,0],[0,0.5,0],[0,0.75,0],[1,0.25,0],[1,0.5,0],[1,0.75,0]];outlineConnect=0;fontColor=#232F3E;gradientColor=#F54749;gradientDirection=north;fillColor=#C7131F;strokeColor=#ffffff;dashed=0;verticalLabelPosition=bottom;verticalAlign=top;align=center;html=1;fontSize=12;fontStyle=0;aspect=fixed;shape=mxgraph.aws4.resourceIcon;resIcon=mxgraph.aws4.workmail;" parent="1" vertex="1">
          <mxGeometry x="30" y="812.25" width="65.75" height="65.75" as="geometry" />
        </mxCell>
        <mxCell id="Ij9Xw9QdPiE9dVmvjiWs-4" style="edgeStyle=orthogonalEdgeStyle;rounded=0;orthogonalLoop=1;jettySize=auto;html=1;entryX=0;entryY=0.5;entryDx=0;entryDy=0;entryPerimeter=0;" parent="1" source="NrrgTj4qj1DMs7ZlNqy9-10" target="NrrgTj4qj1DMs7ZlNqy9-34" edge="1">
          <mxGeometry relative="1" as="geometry" />
        </mxCell>
        <mxCell id="Ij9Xw9QdPiE9dVmvjiWs-11" style="edgeStyle=orthogonalEdgeStyle;rounded=0;orthogonalLoop=1;jettySize=auto;html=1;exitX=0;exitY=0.5;exitDx=0;exitDy=0;exitPerimeter=0;" parent="1" source="NrrgTj4qj1DMs7ZlNqy9-34" target="NrrgTj4qj1DMs7ZlNqy9-22" edge="1">
          <mxGeometry relative="1" as="geometry">
            <Array as="points">
              <mxPoint x="535" y="480" />
              <mxPoint x="535" y="625" />
            </Array>
          </mxGeometry>
        </mxCell>
        <mxCell id="NrrgTj4qj1DMs7ZlNqy9-34" value="Client VPN Gateway" style="outlineConnect=0;dashed=0;verticalLabelPosition=bottom;verticalAlign=top;align=center;html=1;shape=mxgraph.aws3.vpn_gateway;fillColor=#F58534;gradientColor=none;" parent="1" vertex="1">
          <mxGeometry x="600" y="444" width="69" height="72" as="geometry" />
        </mxCell>
        <mxCell id="Ij9Xw9QdPiE9dVmvjiWs-18" value="C2 Server" style="points=[];aspect=fixed;html=1;align=center;shadow=0;dashed=0;image;image=img/lib/allied_telesis/computer_and_terminals/Personal_Computer.svg;" parent="1" vertex="1">
          <mxGeometry x="1100" y="264.90999999999997" width="65" height="88.09" as="geometry" />
        </mxCell>
        <mxCell id="Ij9Xw9QdPiE9dVmvjiWs-21" style="edgeStyle=orthogonalEdgeStyle;rounded=0;orthogonalLoop=1;jettySize=auto;html=1;entryX=0.99;entryY=0.64;entryDx=0;entryDy=0;entryPerimeter=0;" parent="1" source="Ij9Xw9QdPiE9dVmvjiWs-20" target="NrrgTj4qj1DMs7ZlNqy9-12" edge="1">
          <mxGeometry relative="1" as="geometry" />
        </mxCell>
        <mxCell id="Ij9Xw9QdPiE9dVmvjiWs-20" value="Pentest VMs" style="points=[];aspect=fixed;html=1;align=center;shadow=0;dashed=0;image;image=img/lib/allied_telesis/computer_and_terminals/Personal_Computer.svg;" parent="1" vertex="1">
          <mxGeometry x="1090" y="410" width="65" height="88.09" as="geometry" />
        </mxCell>
      </root>
    </mxGraphModel>
  </diagram>
</mxfile>
